<mxfile host="app.diagrams.net" modified="2022-03-13T09:16:34.149Z" agent="5.0 (Windows NT 10.0; Win64; x64) AppleWebKit/537.36 (KHTML, like Gecko) Chrome/99.0.4844.51 Safari/537.36" etag="ZEGyrcSc-6qcVodHnNnn" version="17.1.2" type="github">
  <diagram id="LF9A14juebanIztVAwl8" name="Page-1">
    <mxGraphModel dx="2035" dy="588" grid="1" gridSize="10" guides="1" tooltips="1" connect="1" arrows="1" fold="1" page="1" pageScale="1" pageWidth="850" pageHeight="1100" math="0" shadow="0">
      <root>
        <mxCell id="0" />
        <mxCell id="1" parent="0" />
        <mxCell id="XZKyvN7AmMF5eH-SC4PA-3" value="TV" style="shape=umlLifeline;perimeter=lifelinePerimeter;whiteSpace=wrap;html=1;container=1;collapsible=0;recursiveResize=0;outlineConnect=0;strokeWidth=2;fontSize=14;" vertex="1" parent="1">
          <mxGeometry x="90" y="110" width="100" height="460" as="geometry" />
        </mxCell>
        <mxCell id="XZKyvN7AmMF5eH-SC4PA-7" value="" style="html=1;points=[];perimeter=orthogonalPerimeter;strokeWidth=2;fontSize=14;" vertex="1" parent="XZKyvN7AmMF5eH-SC4PA-3">
          <mxGeometry x="45" y="70" width="10" height="70" as="geometry" />
        </mxCell>
        <mxCell id="XZKyvN7AmMF5eH-SC4PA-24" value="init" style="edgeStyle=orthogonalEdgeStyle;html=1;align=left;spacingLeft=2;endArrow=block;rounded=0;fontSize=14;" edge="1" target="XZKyvN7AmMF5eH-SC4PA-7" parent="XZKyvN7AmMF5eH-SC4PA-3">
          <mxGeometry relative="1" as="geometry">
            <mxPoint x="49" y="60" as="sourcePoint" />
            <Array as="points">
              <mxPoint x="79" y="60" />
              <mxPoint x="79" y="90" />
            </Array>
            <mxPoint x="54" y="80" as="targetPoint" />
          </mxGeometry>
        </mxCell>
        <mxCell id="XZKyvN7AmMF5eH-SC4PA-4" value="Auth-seed" style="shape=umlLifeline;perimeter=lifelinePerimeter;whiteSpace=wrap;html=1;container=1;collapsible=0;recursiveResize=0;outlineConnect=0;strokeWidth=2;fontSize=14;" vertex="1" parent="1">
          <mxGeometry x="550" y="110" width="100" height="380" as="geometry" />
        </mxCell>
        <mxCell id="XZKyvN7AmMF5eH-SC4PA-10" value="" style="html=1;points=[];perimeter=orthogonalPerimeter;strokeWidth=2;fontSize=14;" vertex="1" parent="XZKyvN7AmMF5eH-SC4PA-4">
          <mxGeometry x="45" y="70" width="10" height="80" as="geometry" />
        </mxCell>
        <mxCell id="XZKyvN7AmMF5eH-SC4PA-29" value="" style="html=1;points=[];perimeter=orthogonalPerimeter;strokeWidth=2;fontSize=14;" vertex="1" parent="XZKyvN7AmMF5eH-SC4PA-4">
          <mxGeometry x="45" y="180" width="10" height="110" as="geometry" />
        </mxCell>
        <mxCell id="XZKyvN7AmMF5eH-SC4PA-5" value="iot-seed" style="shape=umlLifeline;perimeter=lifelinePerimeter;whiteSpace=wrap;html=1;container=1;collapsible=0;recursiveResize=0;outlineConnect=0;strokeWidth=2;fontSize=14;" vertex="1" parent="1">
          <mxGeometry x="327" y="110" width="100" height="460" as="geometry" />
        </mxCell>
        <mxCell id="XZKyvN7AmMF5eH-SC4PA-6" value="Auth0&lt;br style=&quot;font-size: 14px;&quot;&gt;(device flow)" style="shape=umlLifeline;perimeter=lifelinePerimeter;whiteSpace=wrap;html=1;container=1;collapsible=0;recursiveResize=0;outlineConnect=0;strokeWidth=2;fontSize=14;" vertex="1" parent="1">
          <mxGeometry x="900" y="110" width="100" height="380" as="geometry" />
        </mxCell>
        <mxCell id="XZKyvN7AmMF5eH-SC4PA-9" value="" style="html=1;verticalAlign=bottom;endArrow=block;rounded=0;fontSize=14;" edge="1" parent="1" source="XZKyvN7AmMF5eH-SC4PA-7" target="XZKyvN7AmMF5eH-SC4PA-10">
          <mxGeometry x="-0.1297" width="80" relative="1" as="geometry">
            <mxPoint x="120" y="210" as="sourcePoint" />
            <mxPoint x="372" y="190" as="targetPoint" />
            <Array as="points" />
            <mxPoint as="offset" />
          </mxGeometry>
        </mxCell>
        <mxCell id="XZKyvN7AmMF5eH-SC4PA-33" value="create session&amp;nbsp; /device/authorization" style="edgeLabel;html=1;align=center;verticalAlign=middle;resizable=0;points=[];fontSize=14;" vertex="1" connectable="0" parent="XZKyvN7AmMF5eH-SC4PA-9">
          <mxGeometry x="-0.1178" y="-2" relative="1" as="geometry">
            <mxPoint as="offset" />
          </mxGeometry>
        </mxCell>
        <mxCell id="XZKyvN7AmMF5eH-SC4PA-11" value="" style="html=1;verticalAlign=bottom;endArrow=open;dashed=1;endSize=8;rounded=0;fontSize=14;" edge="1" parent="1" source="XZKyvN7AmMF5eH-SC4PA-10" target="XZKyvN7AmMF5eH-SC4PA-7">
          <mxGeometry x="0.0231" relative="1" as="geometry">
            <mxPoint x="330" y="210" as="sourcePoint" />
            <mxPoint x="250" y="210" as="targetPoint" />
            <Array as="points">
              <mxPoint x="380" y="240" />
            </Array>
            <mxPoint as="offset" />
          </mxGeometry>
        </mxCell>
        <mxCell id="XZKyvN7AmMF5eH-SC4PA-34" value="return user code" style="edgeLabel;html=1;align=center;verticalAlign=middle;resizable=0;points=[];fontSize=14;" vertex="1" connectable="0" parent="XZKyvN7AmMF5eH-SC4PA-11">
          <mxGeometry x="-0.0568" relative="1" as="geometry">
            <mxPoint as="offset" />
          </mxGeometry>
        </mxCell>
        <mxCell id="XZKyvN7AmMF5eH-SC4PA-25" value="H5" style="shape=umlLifeline;perimeter=lifelinePerimeter;whiteSpace=wrap;html=1;container=1;collapsible=0;recursiveResize=0;outlineConnect=0;strokeWidth=2;fontSize=14;" vertex="1" parent="1">
          <mxGeometry x="-110" y="110" width="100" height="420" as="geometry" />
        </mxCell>
        <mxCell id="XZKyvN7AmMF5eH-SC4PA-27" value="" style="html=1;points=[];perimeter=orthogonalPerimeter;strokeWidth=2;fontSize=14;" vertex="1" parent="XZKyvN7AmMF5eH-SC4PA-25">
          <mxGeometry x="45" y="180" width="10" height="100" as="geometry" />
        </mxCell>
        <mxCell id="XZKyvN7AmMF5eH-SC4PA-28" value="input user code" style="edgeStyle=orthogonalEdgeStyle;html=1;align=left;spacingLeft=2;endArrow=block;rounded=0;fontSize=14;" edge="1" parent="XZKyvN7AmMF5eH-SC4PA-25" target="XZKyvN7AmMF5eH-SC4PA-27">
          <mxGeometry relative="1" as="geometry">
            <mxPoint x="50" y="160" as="sourcePoint" />
            <Array as="points">
              <mxPoint x="80" y="160" />
              <mxPoint x="80" y="190" />
            </Array>
            <mxPoint x="56" y="190" as="targetPoint" />
          </mxGeometry>
        </mxCell>
        <mxCell id="XZKyvN7AmMF5eH-SC4PA-31" value="" style="edgeStyle=elbowEdgeStyle;fontSize=14;html=1;endArrow=blockThin;endFill=1;rounded=0;" edge="1" parent="1" source="XZKyvN7AmMF5eH-SC4PA-27" target="XZKyvN7AmMF5eH-SC4PA-29">
          <mxGeometry width="160" relative="1" as="geometry">
            <mxPoint x="-110" y="320" as="sourcePoint" />
            <mxPoint x="50" y="320" as="targetPoint" />
            <Array as="points">
              <mxPoint x="390" y="360" />
              <mxPoint x="300" y="320" />
            </Array>
          </mxGeometry>
        </mxCell>
        <mxCell id="XZKyvN7AmMF5eH-SC4PA-32" value="check&amp;nbsp; &amp;nbsp;/device/verification" style="edgeLabel;html=1;align=center;verticalAlign=middle;resizable=0;points=[];fontSize=14;" vertex="1" connectable="0" parent="XZKyvN7AmMF5eH-SC4PA-31">
          <mxGeometry x="0.0742" relative="1" as="geometry">
            <mxPoint as="offset" />
          </mxGeometry>
        </mxCell>
        <mxCell id="XZKyvN7AmMF5eH-SC4PA-35" value="" style="html=1;verticalAlign=bottom;endArrow=open;dashed=1;endSize=8;rounded=0;fontSize=14;" edge="1" parent="1" source="XZKyvN7AmMF5eH-SC4PA-29" target="XZKyvN7AmMF5eH-SC4PA-27">
          <mxGeometry relative="1" as="geometry">
            <mxPoint x="250" y="360" as="sourcePoint" />
            <mxPoint x="170" y="360" as="targetPoint" />
            <Array as="points">
              <mxPoint x="210" y="380" />
            </Array>
          </mxGeometry>
        </mxCell>
        <mxCell id="XZKyvN7AmMF5eH-SC4PA-36" value="return uri" style="edgeLabel;html=1;align=center;verticalAlign=middle;resizable=0;points=[];fontSize=14;" vertex="1" connectable="0" parent="XZKyvN7AmMF5eH-SC4PA-35">
          <mxGeometry x="-0.0035" y="2" relative="1" as="geometry">
            <mxPoint as="offset" />
          </mxGeometry>
        </mxCell>
        <mxCell id="XZKyvN7AmMF5eH-SC4PA-37" value="" style="edgeStyle=elbowEdgeStyle;fontSize=12;html=1;endArrow=blockThin;endFill=1;rounded=0;" edge="1" parent="1" source="XZKyvN7AmMF5eH-SC4PA-27" target="XZKyvN7AmMF5eH-SC4PA-29">
          <mxGeometry width="160" relative="1" as="geometry">
            <mxPoint x="-100" y="320" as="sourcePoint" />
            <mxPoint x="60" y="320" as="targetPoint" />
            <Array as="points">
              <mxPoint x="290" y="310" />
            </Array>
          </mxGeometry>
        </mxCell>
        <mxCell id="XZKyvN7AmMF5eH-SC4PA-38" value="get device info&amp;nbsp;/device/info" style="edgeLabel;html=1;align=center;verticalAlign=middle;resizable=0;points=[];fontSize=14;" vertex="1" connectable="0" parent="XZKyvN7AmMF5eH-SC4PA-37">
          <mxGeometry x="0.0493" y="-4" relative="1" as="geometry">
            <mxPoint as="offset" />
          </mxGeometry>
        </mxCell>
        <mxCell id="XZKyvN7AmMF5eH-SC4PA-39" value="" style="html=1;verticalAlign=bottom;endArrow=open;dashed=1;endSize=8;rounded=0;fontSize=14;" edge="1" parent="1">
          <mxGeometry relative="1" as="geometry">
            <mxPoint x="595" y="335" as="sourcePoint" />
            <mxPoint x="-55" y="335" as="targetPoint" />
            <Array as="points">
              <mxPoint x="220" y="335" />
            </Array>
          </mxGeometry>
        </mxCell>
        <mxCell id="XZKyvN7AmMF5eH-SC4PA-40" value="return" style="edgeLabel;html=1;align=center;verticalAlign=middle;resizable=0;points=[];fontSize=14;" vertex="1" connectable="0" parent="XZKyvN7AmMF5eH-SC4PA-39">
          <mxGeometry x="-0.0772" relative="1" as="geometry">
            <mxPoint as="offset" />
          </mxGeometry>
        </mxCell>
      </root>
    </mxGraphModel>
  </diagram>
</mxfile>
